<svg width="76" height="64" viewBox="0 0 76 64" fill="none" xmlns="http://www.w3.org/2000/svg">
<path d="M27.3934 57.5694C27.5604 58.1818 27.7275 58.7943 27.7275 59.4067C27.7275 62.0096 25.556 64 22.7165 64C20.7121 64 18.8747 62.7751 18.0396 61.244C16.3692 57.4163 17.2044 50.9856 19.7099 43.4833C14.5319 44.2488 9.68791 44.7081 5.34506 45.0144C2.50549 45.1675 0 43.0239 0 40.4211C0 37.9713 2.0044 35.9809 4.67692 35.8278C10.356 35.5215 16.8703 34.6029 23.7187 33.5311L27.7275 25.7225C22.7165 20.5167 17.3714 15.311 11.8593 10.7177C10.8571 9.95216 10.189 8.72728 10.189 7.34929C10.189 4.74641 12.3604 2.75598 15.2 2.75598C16.5363 2.75598 17.7055 3.21532 18.5407 3.98086C23.3846 7.96173 28.2286 12.555 32.7385 17.3014C36.7473 11.177 41.2571 5.51196 45.6 1.37799C46.6022 0.459333 47.9385 0 49.2747 0C52.1143 0 54.2857 1.99043 54.2857 4.59331C54.2857 5.81819 53.7846 6.88995 52.9495 7.80861C48.2725 12.2488 43.7626 18.3732 39.7539 24.6507L43.9297 29.5502C54.9539 27.2536 64.4747 24.9569 69.6527 23.579C72.8264 22.8134 76 24.9569 76 28.0191C76 30.1627 74.4967 31.8469 72.3253 32.4593C67.8154 33.5311 59.7978 35.5215 50.444 37.6651L55.9561 45.1675C56.4571 45.933 56.7912 46.6986 56.7912 47.6172C56.7912 50.2201 54.6198 52.2105 51.7802 52.2105C49.9429 52.2105 48.4396 51.2919 47.6044 50.067C45.6 47.1579 42.9275 43.6364 39.9209 39.9617L31.0681 41.6459C27.8945 49.1483 26.3912 55.4258 27.3934 57.5694Z" fill="#DB0058"/>
</svg>
