<svg width="364" height="189" fill="none" xmlns="http://www.w3.org/2000/svg"><path d="M315.393 57.57c.167.612.334 1.224.334 1.837 0 2.603-2.171 4.593-5.011 4.593-2.004 0-3.841-1.225-4.676-2.756-1.671-3.828-.836-10.258 1.67-17.76-5.178.765-10.022 1.224-14.365 1.53-2.84.153-5.345-1.99-5.345-4.593 0-2.45 2.004-4.44 4.677-4.593 5.679-.306 12.193-1.225 19.042-2.297l4.008-7.808c-5.011-5.206-10.356-10.412-15.868-15.005a4.246 4.246 0 0 1-1.67-3.369c0-2.603 2.171-4.593 5.011-4.593 1.336 0 2.505.46 3.341 1.225 4.844 3.98 9.688 8.574 14.197 13.32 4.009-6.124 8.519-11.789 12.862-15.923C334.602.459 335.938 0 337.275 0c2.839 0 5.011 1.99 5.011 4.593 0 1.225-.501 2.297-1.337 3.216-4.676 4.44-9.186 10.564-13.195 16.842l4.176 4.9c11.024-2.297 20.545-4.594 25.723-5.972 3.173-.766 6.347 1.378 6.347 4.44 0 2.144-1.503 3.828-3.675 4.44-4.51 1.072-12.527 3.063-21.881 5.206l5.512 7.502c.501.766.835 1.532.835 2.45 0 2.603-2.171 4.594-5.011 4.594-1.837 0-3.34-.92-4.176-2.144-2.004-2.91-4.677-6.43-7.683-10.105l-8.853 1.684c-3.173 7.502-4.677 13.78-3.675 15.923zM34.795 189L0 26h24.52l30.824 144.604h22.418L81.732 189H34.794zm56.665 0L56.665 26h47.171l3.97 18.163H85.155l10.508 49.133h20.783l3.737 18.395H99.399l12.61 58.913h22.418l3.97 18.396H91.46zm57.121 0L113.786 26h31.759l52.542 144.604h.234L160.957 26h23.352l34.795 163h-31.992L134.803 44.163h-.467L171.933 189h-23.352zm79.86 0L210.46 26h39.699L302 189h-24.987l-12.143-41.216h-17.514L252.727 189h-24.286zm5.605-144.837l10.975 85.458h14.478l-24.986-85.458h-.467z" fill="#fff"/></svg>
